<svg width="738" height="219" viewBox="0 0 738 219" fill="none" xmlns="http://www.w3.org/2000/svg">
<path d="M191.046 54.5845V100.072C191.046 110.824 188.928 121.471 184.814 131.405C180.699 141.338 174.668 150.365 167.065 157.967C159.462 165.57 150.436 171.602 140.502 175.716C130.568 179.831 119.921 181.949 109.169 181.949C98.417 181.949 87.77 179.831 77.8362 175.716C67.9025 171.602 58.8764 165.57 51.2734 157.967C43.6705 150.365 37.6395 141.338 33.5247 131.405C29.41 121.471 27.2922 110.824 27.2922 100.072V54.5845C27.2922 49.7589 29.2092 45.131 32.6214 41.7188C36.0336 38.3066 40.6615 36.3896 45.4871 36.3896H172.851C177.677 36.3896 182.305 38.3066 185.717 41.7188C189.129 45.131 191.046 49.7589 191.046 54.5845Z" fill="#0C3397"/>
<path d="M72.7793 90.9744L109.169 100.072L145.559 90.9744" stroke="white" stroke-width="9.09744" stroke-linecap="round" stroke-linejoin="round"/>
<path d="M72.7793 118.267L109.169 127.364L145.559 118.267" stroke="#43E2BC" stroke-width="9.09744" stroke-linecap="round" stroke-linejoin="round"/>
<path d="M226.004 74.5193H248.369C252.079 74.5193 255.439 74.9743 258.449 75.8843C261.459 76.7943 264.049 78.1243 266.219 79.8743C268.389 81.5543 270.034 83.6543 271.154 86.1743C272.344 88.6243 272.939 91.4593 272.939 94.6793C272.939 98.3893 272.274 101.574 270.944 104.234C269.614 106.894 267.794 109.134 265.484 110.954C263.174 112.704 260.444 113.999 257.294 114.839C254.144 115.679 250.749 116.099 247.109 116.099H238.814V140.669H226.004V74.5193ZM238.814 106.124H244.694C246.794 106.124 248.754 105.949 250.574 105.599C252.394 105.249 253.969 104.654 255.299 103.814C256.699 102.974 257.784 101.854 258.554 100.454C259.324 99.0543 259.709 97.3043 259.709 95.2043C259.709 93.3143 259.359 91.7043 258.659 90.3743C257.959 88.9743 256.979 87.8543 255.719 87.0143C254.529 86.1043 253.129 85.4393 251.519 85.0193C249.909 84.5993 248.229 84.3893 246.479 84.3893H238.814V106.124ZM326.658 118.514H292.743V118.934C292.743 123.484 294.143 126.879 296.943 129.119C299.813 131.359 303.558 132.479 308.178 132.479C310.908 132.479 313.323 132.234 315.423 131.744C317.593 131.254 319.658 130.589 321.618 129.749L324.033 138.464C322.003 139.374 319.588 140.144 316.788 140.774C313.988 141.404 310.733 141.719 307.023 141.719C303.313 141.719 299.813 141.229 296.523 140.249C293.303 139.269 290.468 137.729 288.018 135.629C285.568 133.529 283.608 130.869 282.138 127.649C280.738 124.429 280.038 120.579 280.038 116.099C280.038 112.179 280.633 108.609 281.823 105.389C283.013 102.169 284.693 99.4043 286.863 97.0943C289.033 94.7843 291.658 92.9993 294.738 91.7393C297.818 90.4793 301.213 89.8493 304.923 89.8493C311.573 89.8493 316.858 91.8793 320.778 95.9393C324.698 99.9993 326.658 105.634 326.658 112.844V118.514ZM313.953 109.904C313.953 108.434 313.778 107.034 313.428 105.704C313.078 104.304 312.518 103.079 311.748 102.029C310.978 100.979 309.963 100.174 308.703 99.6143C307.513 98.9843 306.078 98.6693 304.398 98.6693C301.248 98.6693 298.658 99.7193 296.628 101.819C294.598 103.919 293.373 106.684 292.953 110.114L313.953 109.904ZM381.094 118.514H347.179V118.934C347.179 123.484 348.579 126.879 351.379 129.119C354.249 131.359 357.994 132.479 362.614 132.479C365.344 132.479 367.759 132.234 369.859 131.744C372.029 131.254 374.094 130.589 376.054 129.749L378.469 138.464C376.439 139.374 374.024 140.144 371.224 140.774C368.424 141.404 365.169 141.719 361.459 141.719C357.749 141.719 354.249 141.229 350.959 140.249C347.739 139.269 344.904 137.729 342.454 135.629C340.004 133.529 338.044 130.869 336.574 127.649C335.174 124.429 334.474 120.579 334.474 116.099C334.474 112.179 335.069 108.609 336.259 105.389C337.449 102.169 339.129 99.4043 341.299 97.0943C343.469 94.7843 346.094 92.9993 349.174 91.7393C352.254 90.4793 355.649 89.8493 359.359 89.8493C366.009 89.8493 371.294 91.8793 375.214 95.9393C379.134 99.9993 381.094 105.634 381.094 112.844V118.514ZM368.389 109.904C368.389 108.434 368.214 107.034 367.864 105.704C367.514 104.304 366.954 103.079 366.184 102.029C365.414 100.979 364.399 100.174 363.139 99.6143C361.949 98.9843 360.514 98.6693 358.834 98.6693C355.684 98.6693 353.094 99.7193 351.064 101.819C349.034 103.919 347.809 106.684 347.389 110.114L368.389 109.904ZM391.744 140.669V90.7943H401.299L402.874 100.139C404.064 97.2693 405.954 94.8543 408.544 92.8943C411.134 90.8643 414.354 89.8493 418.204 89.8493C419.884 89.8493 421.354 90.0243 422.614 90.3743C423.874 90.7243 424.924 91.1093 425.764 91.5293L423.664 101.609C422.894 101.189 421.949 100.839 420.829 100.559C419.709 100.209 418.344 100.034 416.734 100.034C413.164 100.034 410.154 101.259 407.704 103.709C405.254 106.159 404.029 110.044 404.029 115.364V140.669H391.744Z" fill="#33C6A3"/>
<path d="M433.697 74.5193H456.062C459.772 74.5193 463.132 74.9743 466.142 75.8843C469.152 76.7943 471.742 78.1243 473.912 79.8743C476.082 81.5543 477.727 83.6543 478.847 86.1743C480.037 88.6243 480.632 91.4593 480.632 94.6793C480.632 98.3893 479.967 101.574 478.637 104.234C477.307 106.894 475.487 109.134 473.177 110.954C470.867 112.704 468.137 113.999 464.987 114.839C461.837 115.679 458.442 116.099 454.802 116.099H446.507V140.669H433.697V74.5193ZM446.507 106.124H452.387C454.487 106.124 456.447 105.949 458.267 105.599C460.087 105.249 461.662 104.654 462.992 103.814C464.392 102.974 465.477 101.854 466.247 100.454C467.017 99.0543 467.402 97.3043 467.402 95.2043C467.402 93.3143 467.052 91.7043 466.352 90.3743C465.652 88.9743 464.672 87.8543 463.412 87.0143C462.222 86.1043 460.822 85.4393 459.212 85.0193C457.602 84.5993 455.922 84.3893 454.172 84.3893H446.507V106.124ZM538.236 115.364C538.236 119.494 537.571 123.204 536.241 126.494C534.981 129.784 533.196 132.549 530.886 134.789C528.576 137.029 525.881 138.744 522.801 139.934C519.721 141.124 516.396 141.719 512.826 141.719C509.256 141.719 505.931 141.159 502.851 140.039C499.841 138.919 497.216 137.309 494.976 135.209C492.736 133.039 490.986 130.379 489.726 127.229C488.466 124.079 487.836 120.474 487.836 116.414C487.836 112.214 488.466 108.469 489.726 105.179C491.056 101.819 492.876 99.0193 495.186 96.7793C497.496 94.5393 500.191 92.8243 503.271 91.6343C506.351 90.4443 509.676 89.8493 513.246 89.8493C516.816 89.8493 520.106 90.4093 523.116 91.5293C526.196 92.5793 528.856 94.1893 531.096 96.3593C533.336 98.5293 535.086 101.189 536.346 104.339C537.606 107.489 538.236 111.164 538.236 115.364ZM525.426 115.889C525.426 112.879 525.076 110.324 524.376 108.224C523.676 106.054 522.731 104.304 521.541 102.974C520.421 101.644 519.091 100.664 517.551 100.034C516.081 99.4043 514.541 99.0893 512.931 99.0893C511.321 99.0893 509.781 99.3693 508.311 99.9293C506.841 100.419 505.546 101.329 504.426 102.659C503.306 103.919 502.396 105.634 501.696 107.804C500.996 109.974 500.646 112.669 500.646 115.889C500.646 118.829 500.996 121.349 501.696 123.449C502.396 125.479 503.306 127.194 504.426 128.594C505.616 129.924 506.946 130.904 508.416 131.534C509.956 132.164 511.531 132.479 513.141 132.479C514.681 132.479 516.186 132.199 517.656 131.639C519.196 131.079 520.526 130.169 521.646 128.909C522.766 127.649 523.676 125.969 524.376 123.869C525.076 121.699 525.426 119.039 525.426 115.889ZM574.411 132.479C576.651 132.479 578.611 132.234 580.291 131.744C582.041 131.184 583.511 130.589 584.701 129.959L587.116 138.674C585.576 139.444 583.546 140.144 581.026 140.774C578.506 141.404 575.741 141.719 572.731 141.719C569.021 141.719 565.556 141.194 562.336 140.144C559.116 139.024 556.316 137.379 553.936 135.209C551.556 133.039 549.666 130.344 548.266 127.124C546.936 123.904 546.271 120.159 546.271 115.889C546.271 111.969 546.901 108.399 548.161 105.179C549.491 101.959 551.311 99.2293 553.621 96.9893C556.001 94.6793 558.801 92.9293 562.021 91.7393C565.311 90.4793 568.916 89.8493 572.836 89.8493C575.006 89.8493 577.246 90.0593 579.556 90.4793C581.866 90.8993 584.351 91.7393 587.011 92.9993L584.386 101.819C582.776 100.909 581.131 100.209 579.451 99.7193C577.771 99.2293 576.021 98.9843 574.201 98.9843C569.581 98.9843 565.871 100.419 563.071 103.289C560.271 106.089 558.871 110.184 558.871 115.574C558.871 118.724 559.326 121.384 560.236 123.554C561.146 125.724 562.336 127.474 563.806 128.804C565.276 130.134 566.921 131.079 568.741 131.639C570.631 132.199 572.521 132.479 574.411 132.479ZM609.779 123.449V140.669H597.494V65.9093H609.779V110.954L627.629 90.7943H642.749L623.114 111.794L643.589 140.669H628.994L614.189 119.039L609.779 123.449ZM692.736 118.514H658.821V118.934C658.821 123.484 660.221 126.879 663.021 129.119C665.891 131.359 669.636 132.479 674.256 132.479C676.986 132.479 679.401 132.234 681.501 131.744C683.671 131.254 685.736 130.589 687.696 129.749L690.111 138.464C688.081 139.374 685.666 140.144 682.866 140.774C680.066 141.404 676.811 141.719 673.101 141.719C669.391 141.719 665.891 141.229 662.601 140.249C659.381 139.269 656.546 137.729 654.096 135.629C651.646 133.529 649.686 130.869 648.216 127.649C646.816 124.429 646.116 120.579 646.116 116.099C646.116 112.179 646.711 108.609 647.901 105.389C649.091 102.169 650.771 99.4043 652.941 97.0943C655.111 94.7843 657.736 92.9993 660.816 91.7393C663.896 90.4793 667.291 89.8493 671.001 89.8493C677.651 89.8493 682.936 91.8793 686.856 95.9393C690.776 99.9993 692.736 105.634 692.736 112.844V118.514ZM680.031 109.904C680.031 108.434 679.856 107.034 679.506 105.704C679.156 104.304 678.596 103.079 677.826 102.029C677.056 100.979 676.041 100.174 674.781 99.6143C673.591 98.9843 672.156 98.6693 670.476 98.6693C667.326 98.6693 664.736 99.7193 662.706 101.819C660.676 103.919 659.451 106.684 659.031 110.114L680.031 109.904ZM732.052 99.8243H718.297V124.814C718.297 127.194 718.857 128.839 719.977 129.749C721.167 130.589 722.672 131.009 724.492 131.009C725.892 131.009 727.362 130.869 728.902 130.589C730.442 130.309 731.737 129.924 732.787 129.434L734.677 138.254C733.347 138.814 731.527 139.374 729.217 139.934C726.977 140.424 724.562 140.669 721.972 140.669C716.302 140.669 712.207 139.514 709.687 137.204C707.237 134.894 706.012 131.429 706.012 126.809V99.8243H698.452V90.7943H706.012V75.2543H718.297V90.7943H732.052V99.8243Z" fill="#0C3397"/>
</svg>
