<svg width="610" height="1133" viewBox="0 0 610 1133" fill="none" xmlns="http://www.w3.org/2000/svg">
<g clip-path="url(#clip0_26_22395)">
<path d="M0 0H610V1133H0V0Z" fill="url(#paint0_linear_26_22395)"/>
<line x1="262.114" y1="647.991" x2="293.145" y2="627.839" stroke="#68D7BC" stroke-width="2"/>
<line x1="334.24" y1="601.152" x2="365.271" y2="581" stroke="#68D7BC" stroke-width="2"/>
<line x1="406.366" y1="554.313" x2="437.396" y2="534.161" stroke="#68D7BC" stroke-width="2"/>
<line x1="298.177" y1="624.571" x2="329.208" y2="604.42" stroke="#859FE1" stroke-width="2"/>
<line x1="370.303" y1="577.732" x2="401.333" y2="557.581" stroke="#859FE1" stroke-width="2"/>
<line x1="118.518" y1="741.643" x2="149.549" y2="721.491" stroke="#68D7BC" stroke-width="2"/>
<line x1="190.644" y1="694.804" x2="221.675" y2="674.653" stroke="#68D7BC" stroke-width="2"/>
<line x1="154.581" y1="718.224" x2="185.612" y2="698.072" stroke="#859FE1" stroke-width="2"/>
<line x1="226.707" y1="671.384" x2="257.738" y2="651.233" stroke="#859FE1" stroke-width="2"/>
<line x1="-24.9489" y1="835.019" x2="6.08188" y2="814.867" stroke="#68D7BC" stroke-width="2"/>
<line x1="47.1768" y1="788.18" x2="78.2076" y2="768.028" stroke="#68D7BC" stroke-width="2"/>
<line x1="11.1138" y1="811.599" x2="42.1446" y2="791.447" stroke="#859FE1" stroke-width="2"/>
<line x1="83.2395" y1="764.76" x2="114.27" y2="744.608" stroke="#859FE1" stroke-width="2"/>
<line x1="236.114" y1="572.991" x2="267.145" y2="552.839" stroke="#68D7BC" stroke-width="2"/>
<line x1="308.24" y1="526.152" x2="339.271" y2="506" stroke="#68D7BC" stroke-width="2"/>
<line x1="380.366" y1="479.313" x2="411.396" y2="459.161" stroke="#68D7BC" stroke-width="2"/>
<line x1="272.177" y1="549.571" x2="303.208" y2="529.42" stroke="#859FE1" stroke-width="2"/>
<line x1="344.303" y1="502.732" x2="375.333" y2="482.581" stroke="#859FE1" stroke-width="2"/>
<line x1="453.581" y1="432.152" x2="484.612" y2="412.001" stroke="#68D7BC" stroke-width="2"/>
<line x1="525.707" y1="385.313" x2="556.738" y2="365.162" stroke="#68D7BC" stroke-width="2"/>
<line x1="417.518" y1="455.572" x2="448.549" y2="435.42" stroke="#859FE1" stroke-width="2"/>
<line x1="489.644" y1="408.733" x2="520.675" y2="388.581" stroke="#859FE1" stroke-width="2"/>
<line x1="467.581" y1="470.153" x2="498.612" y2="450.001" stroke="#68D7BC" stroke-width="2"/>
<line x1="539.707" y1="423.313" x2="570.738" y2="403.162" stroke="#68D7BC" stroke-width="2"/>
<line x1="431.518" y1="493.572" x2="462.549" y2="473.42" stroke="#859FE1" stroke-width="2"/>
<line x1="503.644" y1="446.733" x2="534.675" y2="426.581" stroke="#859FE1" stroke-width="2"/>
<line x1="479.581" y1="506.153" x2="510.612" y2="486.001" stroke="#68D7BC" stroke-width="2"/>
<line x1="551.707" y1="459.314" x2="582.737" y2="439.162" stroke="#68D7BC" stroke-width="2"/>
<line x1="443.518" y1="529.572" x2="474.549" y2="509.421" stroke="#859FE1" stroke-width="2"/>
<line x1="515.644" y1="482.733" x2="546.675" y2="462.581" stroke="#859FE1" stroke-width="2"/>
<line x1="492.581" y1="546.153" x2="523.612" y2="526.001" stroke="#68D7BC" stroke-width="2"/>
<line x1="564.707" y1="499.314" x2="595.737" y2="479.162" stroke="#68D7BC" stroke-width="2"/>
<line x1="456.518" y1="569.572" x2="487.549" y2="549.421" stroke="#859FE1" stroke-width="2"/>
<line x1="528.644" y1="522.733" x2="559.675" y2="502.582" stroke="#859FE1" stroke-width="2"/>
<line x1="575.581" y1="341.154" x2="606.612" y2="321.002" stroke="#68D7BC" stroke-width="2"/>
<line x1="539.518" y1="364.573" x2="570.549" y2="344.422" stroke="#859FE1" stroke-width="2"/>
<line x1="579.581" y1="362.154" x2="610.612" y2="342.002" stroke="#68D7BC" stroke-width="2"/>
<line x1="543.518" y1="385.573" x2="574.549" y2="365.422" stroke="#859FE1" stroke-width="2"/>
<line x1="590.581" y1="379.154" x2="621.612" y2="359.002" stroke="#68D7BC" stroke-width="2"/>
<line x1="554.518" y1="402.573" x2="585.549" y2="382.422" stroke="#859FE1" stroke-width="2"/>
<line x1="596.581" y1="399.154" x2="627.612" y2="379.002" stroke="#68D7BC" stroke-width="2"/>
<line x1="560.518" y1="422.573" x2="591.549" y2="402.422" stroke="#859FE1" stroke-width="2"/>
<line x1="602.581" y1="415.154" x2="633.612" y2="395.002" stroke="#68D7BC" stroke-width="2"/>
<line x1="566.518" y1="438.573" x2="597.549" y2="418.422" stroke="#859FE1" stroke-width="2"/>
<line x1="606.581" y1="437.154" x2="637.612" y2="417.002" stroke="#68D7BC" stroke-width="2"/>
<line x1="570.518" y1="460.573" x2="601.549" y2="440.422" stroke="#859FE1" stroke-width="2"/>
<line x1="579.518" y1="478.573" x2="610.549" y2="458.422" stroke="#859FE1" stroke-width="2"/>
<line x1="584.518" y1="499.573" x2="615.549" y2="479.422" stroke="#859FE1" stroke-width="2"/>
<line x1="609.518" y1="495.573" x2="640.549" y2="475.422" stroke="#859FE1" stroke-width="2"/>
<line x1="597.581" y1="338.154" x2="628.612" y2="318.003" stroke="#68D7BC" stroke-width="2"/>
<line x1="561.518" y1="361.574" x2="592.549" y2="341.422" stroke="#859FE1" stroke-width="2"/>
<line x1="605.581" y1="356.155" x2="636.612" y2="336.004" stroke="#68D7BC" stroke-width="2"/>
<line x1="569.518" y1="379.575" x2="600.549" y2="359.423" stroke="#859FE1" stroke-width="2"/>
<line x1="577.518" y1="397.576" x2="608.549" y2="377.424" stroke="#859FE1" stroke-width="2"/>
<line x1="585.518" y1="418.577" x2="616.549" y2="398.425" stroke="#859FE1" stroke-width="2"/>
<line x1="587.518" y1="435.578" x2="618.549" y2="415.426" stroke="#859FE1" stroke-width="2"/>
<line x1="596.518" y1="455.579" x2="627.549" y2="435.427" stroke="#859FE1" stroke-width="2"/>
<line x1="599.518" y1="476.58" x2="630.549" y2="456.428" stroke="#859FE1" stroke-width="2"/>
<line x1="92.5183" y1="666.643" x2="123.549" y2="646.492" stroke="#68D7BC" stroke-width="2"/>
<line x1="164.644" y1="619.804" x2="195.675" y2="599.653" stroke="#68D7BC" stroke-width="2"/>
<line x1="128.581" y1="643.224" x2="159.612" y2="623.072" stroke="#859FE1" stroke-width="2"/>
<line x1="200.707" y1="596.385" x2="231.738" y2="576.233" stroke="#859FE1" stroke-width="2"/>
<line x1="21.1768" y1="713.18" x2="52.2076" y2="693.028" stroke="#68D7BC" stroke-width="2"/>
<line x1="-14.8862" y1="736.599" x2="16.1446" y2="716.448" stroke="#859FE1" stroke-width="2"/>
<line x1="57.2395" y1="689.76" x2="88.2704" y2="669.609" stroke="#859FE1" stroke-width="2"/>
<line x1="277.114" y1="685.991" x2="308.145" y2="665.839" stroke="#68D7BC" stroke-width="2"/>
<line x1="349.24" y1="639.152" x2="380.271" y2="619" stroke="#68D7BC" stroke-width="2"/>
<line x1="421.366" y1="592.313" x2="452.396" y2="572.161" stroke="#68D7BC" stroke-width="2"/>
<line x1="313.177" y1="662.571" x2="344.208" y2="642.42" stroke="#859FE1" stroke-width="2"/>
<line x1="385.303" y1="615.732" x2="416.333" y2="595.581" stroke="#859FE1" stroke-width="2"/>
<line x1="133.518" y1="779.643" x2="164.549" y2="759.491" stroke="#68D7BC" stroke-width="2"/>
<line x1="205.644" y1="732.804" x2="236.675" y2="712.653" stroke="#68D7BC" stroke-width="2"/>
<line x1="169.581" y1="756.224" x2="200.612" y2="736.072" stroke="#859FE1" stroke-width="2"/>
<line x1="241.707" y1="709.384" x2="272.738" y2="689.233" stroke="#859FE1" stroke-width="2"/>
<line x1="-9.94894" y1="873.019" x2="21.0819" y2="852.867" stroke="#68D7BC" stroke-width="2"/>
<line x1="62.1768" y1="826.18" x2="93.2076" y2="806.028" stroke="#68D7BC" stroke-width="2"/>
<line x1="26.1138" y1="849.599" x2="57.1446" y2="829.447" stroke="#859FE1" stroke-width="2"/>
<line x1="98.2395" y1="802.76" x2="129.27" y2="782.608" stroke="#859FE1" stroke-width="2"/>
<line x1="251.114" y1="610.991" x2="282.145" y2="590.839" stroke="#68D7BC" stroke-width="2"/>
<line x1="323.24" y1="564.152" x2="354.271" y2="544" stroke="#68D7BC" stroke-width="2"/>
<line x1="395.366" y1="517.313" x2="426.396" y2="497.161" stroke="#68D7BC" stroke-width="2"/>
<line x1="287.177" y1="587.571" x2="318.208" y2="567.42" stroke="#859FE1" stroke-width="2"/>
<line x1="359.303" y1="540.732" x2="390.333" y2="520.581" stroke="#859FE1" stroke-width="2"/>
<line x1="107.518" y1="704.643" x2="138.549" y2="684.491" stroke="#68D7BC" stroke-width="2"/>
<line x1="179.644" y1="657.804" x2="210.675" y2="637.653" stroke="#68D7BC" stroke-width="2"/>
<line x1="143.581" y1="681.224" x2="174.612" y2="661.072" stroke="#859FE1" stroke-width="2"/>
<line x1="215.707" y1="634.384" x2="246.738" y2="614.233" stroke="#859FE1" stroke-width="2"/>
<line x1="36.1768" y1="751.18" x2="67.2076" y2="731.028" stroke="#68D7BC" stroke-width="2"/>
<line x1="0.113808" y1="774.599" x2="31.1446" y2="754.447" stroke="#859FE1" stroke-width="2"/>
<line x1="72.2395" y1="727.76" x2="103.27" y2="707.608" stroke="#859FE1" stroke-width="2"/>
<line x1="385.114" y1="556.991" x2="416.145" y2="536.839" stroke="#68D7BC" stroke-width="2"/>
<line x1="457.24" y1="510.152" x2="488.271" y2="490" stroke="#68D7BC" stroke-width="2"/>
<line x1="529.366" y1="463.313" x2="560.396" y2="443.161" stroke="#68D7BC" stroke-width="2"/>
<line x1="421.177" y1="533.571" x2="452.208" y2="513.42" stroke="#859FE1" stroke-width="2"/>
<line x1="493.303" y1="486.732" x2="524.333" y2="466.581" stroke="#859FE1" stroke-width="2"/>
<line x1="241.518" y1="650.643" x2="272.549" y2="630.491" stroke="#68D7BC" stroke-width="2"/>
<line x1="313.644" y1="603.804" x2="344.675" y2="583.653" stroke="#68D7BC" stroke-width="2"/>
<line x1="277.581" y1="627.224" x2="308.612" y2="607.072" stroke="#859FE1" stroke-width="2"/>
<line x1="349.707" y1="580.384" x2="380.738" y2="560.233" stroke="#859FE1" stroke-width="2"/>
<line x1="98.0511" y1="744.019" x2="129.082" y2="723.867" stroke="#68D7BC" stroke-width="2"/>
<line x1="170.177" y1="697.18" x2="201.208" y2="677.028" stroke="#68D7BC" stroke-width="2"/>
<line x1="134.114" y1="720.599" x2="165.145" y2="700.447" stroke="#859FE1" stroke-width="2"/>
<line x1="206.24" y1="673.76" x2="237.27" y2="653.608" stroke="#859FE1" stroke-width="2"/>
<line x1="26.5811" y1="790.832" x2="57.6119" y2="770.68" stroke="#68D7BC" stroke-width="2"/>
<line x1="-9.48189" y1="814.251" x2="21.5489" y2="794.1" stroke="#859FE1" stroke-width="2"/>
<line x1="62.6438" y1="767.412" x2="93.6746" y2="747.26" stroke="#859FE1" stroke-width="2"/>
<line x1="359.114" y1="481.991" x2="390.145" y2="461.839" stroke="#68D7BC" stroke-width="2"/>
<line x1="431.24" y1="435.152" x2="462.271" y2="415" stroke="#68D7BC" stroke-width="2"/>
<line x1="503.366" y1="388.313" x2="534.396" y2="368.161" stroke="#68D7BC" stroke-width="2"/>
<line x1="395.177" y1="458.571" x2="426.208" y2="438.42" stroke="#859FE1" stroke-width="2"/>
<line x1="467.303" y1="411.732" x2="498.333" y2="391.581" stroke="#859FE1" stroke-width="2"/>
<line x1="215.518" y1="575.643" x2="246.549" y2="555.491" stroke="#68D7BC" stroke-width="2"/>
<line x1="287.644" y1="528.804" x2="318.675" y2="508.652" stroke="#68D7BC" stroke-width="2"/>
<line x1="251.581" y1="552.224" x2="282.612" y2="532.072" stroke="#859FE1" stroke-width="2"/>
<line x1="323.707" y1="505.384" x2="354.738" y2="485.233" stroke="#859FE1" stroke-width="2"/>
<line x1="72.0511" y1="669.019" x2="103.082" y2="648.867" stroke="#68D7BC" stroke-width="2"/>
<line x1="144.177" y1="622.18" x2="175.208" y2="602.028" stroke="#68D7BC" stroke-width="2"/>
<line x1="108.114" y1="645.599" x2="139.145" y2="625.447" stroke="#859FE1" stroke-width="2"/>
<line x1="180.24" y1="598.76" x2="211.27" y2="578.608" stroke="#859FE1" stroke-width="2"/>
<line x1="0.581093" y1="715.832" x2="31.6119" y2="695.68" stroke="#68D7BC" stroke-width="2"/>
<line x1="36.6438" y1="692.412" x2="67.6746" y2="672.26" stroke="#859FE1" stroke-width="2"/>
<line x1="400.114" y1="594.991" x2="431.145" y2="574.839" stroke="#68D7BC" stroke-width="2"/>
<line x1="472.24" y1="548.152" x2="503.271" y2="528" stroke="#68D7BC" stroke-width="2"/>
<line x1="544.365" y1="501.313" x2="575.396" y2="481.161" stroke="#68D7BC" stroke-width="2"/>
<line x1="436.177" y1="571.571" x2="467.208" y2="551.42" stroke="#859FE1" stroke-width="2"/>
<line x1="508.303" y1="524.732" x2="539.333" y2="504.581" stroke="#859FE1" stroke-width="2"/>
<line x1="256.518" y1="688.643" x2="287.549" y2="668.491" stroke="#68D7BC" stroke-width="2"/>
<line x1="328.644" y1="641.804" x2="359.675" y2="621.653" stroke="#68D7BC" stroke-width="2"/>
<line x1="292.581" y1="665.224" x2="323.612" y2="645.072" stroke="#859FE1" stroke-width="2"/>
<line x1="364.707" y1="618.384" x2="395.738" y2="598.233" stroke="#859FE1" stroke-width="2"/>
<line x1="113.051" y1="782.019" x2="144.082" y2="761.867" stroke="#68D7BC" stroke-width="2"/>
<line x1="185.177" y1="735.18" x2="216.208" y2="715.028" stroke="#68D7BC" stroke-width="2"/>
<line x1="149.114" y1="758.599" x2="180.145" y2="738.447" stroke="#859FE1" stroke-width="2"/>
<line x1="221.24" y1="711.76" x2="252.27" y2="691.608" stroke="#859FE1" stroke-width="2"/>
<line x1="-30.5446" y1="875.671" x2="0.486171" y2="855.519" stroke="#68D7BC" stroke-width="2"/>
<line x1="41.5811" y1="828.832" x2="72.6119" y2="808.68" stroke="#68D7BC" stroke-width="2"/>
<line x1="5.51811" y1="852.251" x2="36.5489" y2="832.1" stroke="#859FE1" stroke-width="2"/>
<line x1="77.6438" y1="805.412" x2="108.675" y2="785.26" stroke="#859FE1" stroke-width="2"/>
<line x1="374.114" y1="519.991" x2="405.145" y2="499.839" stroke="#68D7BC" stroke-width="2"/>
<line x1="446.24" y1="473.152" x2="477.271" y2="453" stroke="#68D7BC" stroke-width="2"/>
<line x1="518.366" y1="426.313" x2="549.396" y2="406.161" stroke="#68D7BC" stroke-width="2"/>
<line x1="410.177" y1="496.571" x2="441.208" y2="476.42" stroke="#859FE1" stroke-width="2"/>
<line x1="482.303" y1="449.732" x2="513.333" y2="429.581" stroke="#859FE1" stroke-width="2"/>
<line x1="230.518" y1="613.643" x2="261.549" y2="593.491" stroke="#68D7BC" stroke-width="2"/>
<line x1="302.644" y1="566.804" x2="333.675" y2="546.653" stroke="#68D7BC" stroke-width="2"/>
<line x1="266.581" y1="590.224" x2="297.612" y2="570.072" stroke="#859FE1" stroke-width="2"/>
<line x1="338.707" y1="543.384" x2="369.738" y2="523.233" stroke="#859FE1" stroke-width="2"/>
<line x1="87.0511" y1="707.019" x2="118.082" y2="686.867" stroke="#68D7BC" stroke-width="2"/>
<line x1="159.177" y1="660.18" x2="190.208" y2="640.028" stroke="#68D7BC" stroke-width="2"/>
<line x1="123.114" y1="683.599" x2="154.145" y2="663.447" stroke="#859FE1" stroke-width="2"/>
<line x1="195.24" y1="636.76" x2="226.27" y2="616.608" stroke="#859FE1" stroke-width="2"/>
<line x1="15.5811" y1="753.832" x2="46.6119" y2="733.68" stroke="#68D7BC" stroke-width="2"/>
<line x1="-20.4819" y1="777.251" x2="10.5489" y2="757.1" stroke="#859FE1" stroke-width="2"/>
<line x1="51.6438" y1="730.412" x2="82.6746" y2="710.26" stroke="#859FE1" stroke-width="2"/>
<line x1="390.114" y1="577.991" x2="421.145" y2="557.839" stroke="#68D7BC" stroke-width="2"/>
<line x1="462.24" y1="531.152" x2="493.271" y2="511" stroke="#68D7BC" stroke-width="2"/>
<line x1="534.366" y1="484.313" x2="565.396" y2="464.161" stroke="#68D7BC" stroke-width="2"/>
<line x1="426.177" y1="554.571" x2="457.208" y2="534.42" stroke="#859FE1" stroke-width="2"/>
<line x1="498.303" y1="507.732" x2="529.333" y2="487.581" stroke="#859FE1" stroke-width="2"/>
<line x1="246.518" y1="671.643" x2="277.549" y2="651.491" stroke="#68D7BC" stroke-width="2"/>
<line x1="318.644" y1="624.804" x2="349.675" y2="604.653" stroke="#68D7BC" stroke-width="2"/>
<line x1="282.581" y1="648.224" x2="313.612" y2="628.072" stroke="#859FE1" stroke-width="2"/>
<line x1="354.707" y1="601.384" x2="385.738" y2="581.233" stroke="#859FE1" stroke-width="2"/>
<line x1="103.051" y1="765.019" x2="134.082" y2="744.867" stroke="#68D7BC" stroke-width="2"/>
<line x1="175.177" y1="718.18" x2="206.208" y2="698.028" stroke="#68D7BC" stroke-width="2"/>
<line x1="139.114" y1="741.599" x2="170.145" y2="721.447" stroke="#859FE1" stroke-width="2"/>
<line x1="211.24" y1="694.76" x2="242.27" y2="674.608" stroke="#859FE1" stroke-width="2"/>
<line x1="31.5811" y1="811.832" x2="62.6119" y2="791.68" stroke="#68D7BC" stroke-width="2"/>
<line x1="-4.48189" y1="835.251" x2="26.5489" y2="815.1" stroke="#859FE1" stroke-width="2"/>
<line x1="67.6438" y1="788.412" x2="98.6746" y2="768.26" stroke="#859FE1" stroke-width="2"/>
<line x1="364.114" y1="502.991" x2="395.145" y2="482.839" stroke="#68D7BC" stroke-width="2"/>
<line x1="436.24" y1="456.152" x2="467.271" y2="436" stroke="#68D7BC" stroke-width="2"/>
<line x1="508.366" y1="409.313" x2="539.396" y2="389.161" stroke="#68D7BC" stroke-width="2"/>
<line x1="400.177" y1="479.571" x2="431.208" y2="459.42" stroke="#859FE1" stroke-width="2"/>
<line x1="472.303" y1="432.732" x2="503.333" y2="412.581" stroke="#859FE1" stroke-width="2"/>
<line x1="220.518" y1="596.643" x2="251.549" y2="576.491" stroke="#68D7BC" stroke-width="2"/>
<line x1="292.644" y1="549.804" x2="323.675" y2="529.653" stroke="#68D7BC" stroke-width="2"/>
<line x1="256.581" y1="573.224" x2="287.612" y2="553.072" stroke="#859FE1" stroke-width="2"/>
<line x1="328.707" y1="526.384" x2="359.738" y2="506.233" stroke="#859FE1" stroke-width="2"/>
<line x1="77.0511" y1="690.019" x2="108.082" y2="669.867" stroke="#68D7BC" stroke-width="2"/>
<line x1="149.177" y1="643.18" x2="180.208" y2="623.028" stroke="#68D7BC" stroke-width="2"/>
<line x1="113.114" y1="666.599" x2="144.145" y2="646.447" stroke="#859FE1" stroke-width="2"/>
<line x1="185.24" y1="619.76" x2="216.27" y2="599.608" stroke="#859FE1" stroke-width="2"/>
<line x1="5.58109" y1="736.832" x2="36.6119" y2="716.68" stroke="#68D7BC" stroke-width="2"/>
<line x1="-30.4819" y1="760.251" x2="0.548916" y2="740.1" stroke="#859FE1" stroke-width="2"/>
<line x1="41.6438" y1="713.412" x2="72.6746" y2="693.26" stroke="#859FE1" stroke-width="2"/>
<line x1="405.114" y1="615.991" x2="436.145" y2="595.839" stroke="#68D7BC" stroke-width="2"/>
<line x1="477.24" y1="569.152" x2="508.271" y2="549" stroke="#68D7BC" stroke-width="2"/>
<line x1="549.365" y1="522.313" x2="580.396" y2="502.161" stroke="#68D7BC" stroke-width="2"/>
<line x1="441.177" y1="592.571" x2="472.208" y2="572.42" stroke="#859FE1" stroke-width="2"/>
<line x1="513.303" y1="545.732" x2="544.333" y2="525.581" stroke="#859FE1" stroke-width="2"/>
<line x1="261.518" y1="709.643" x2="292.549" y2="689.491" stroke="#68D7BC" stroke-width="2"/>
<line x1="333.644" y1="662.804" x2="364.675" y2="642.653" stroke="#68D7BC" stroke-width="2"/>
<line x1="297.581" y1="686.224" x2="328.612" y2="666.072" stroke="#859FE1" stroke-width="2"/>
<line x1="369.707" y1="639.384" x2="400.738" y2="619.233" stroke="#859FE1" stroke-width="2"/>
<line x1="118.051" y1="803.019" x2="149.082" y2="782.867" stroke="#68D7BC" stroke-width="2"/>
<line x1="190.177" y1="756.18" x2="221.208" y2="736.028" stroke="#68D7BC" stroke-width="2"/>
<line x1="154.114" y1="779.599" x2="185.145" y2="759.447" stroke="#859FE1" stroke-width="2"/>
<line x1="226.24" y1="732.76" x2="257.27" y2="712.608" stroke="#859FE1" stroke-width="2"/>
<line x1="-25.5446" y1="896.671" x2="5.48617" y2="876.519" stroke="#68D7BC" stroke-width="2"/>
<line x1="46.5811" y1="849.832" x2="77.6119" y2="829.68" stroke="#68D7BC" stroke-width="2"/>
<line x1="10.5181" y1="873.251" x2="41.5489" y2="853.1" stroke="#859FE1" stroke-width="2"/>
<line x1="82.6438" y1="826.412" x2="113.675" y2="806.26" stroke="#859FE1" stroke-width="2"/>
<line x1="379.114" y1="540.991" x2="410.145" y2="520.839" stroke="#68D7BC" stroke-width="2"/>
<line x1="451.24" y1="494.152" x2="482.271" y2="474" stroke="#68D7BC" stroke-width="2"/>
<line x1="523.366" y1="447.313" x2="554.396" y2="427.161" stroke="#68D7BC" stroke-width="2"/>
<line x1="415.177" y1="517.571" x2="446.208" y2="497.42" stroke="#859FE1" stroke-width="2"/>
<line x1="487.303" y1="470.732" x2="518.333" y2="450.581" stroke="#859FE1" stroke-width="2"/>
<line x1="235.518" y1="634.643" x2="266.549" y2="614.491" stroke="#68D7BC" stroke-width="2"/>
<line x1="307.644" y1="587.804" x2="338.675" y2="567.653" stroke="#68D7BC" stroke-width="2"/>
<line x1="271.581" y1="611.224" x2="302.612" y2="591.072" stroke="#859FE1" stroke-width="2"/>
<line x1="343.707" y1="564.384" x2="374.738" y2="544.233" stroke="#859FE1" stroke-width="2"/>
<line x1="92.0511" y1="728.019" x2="123.082" y2="707.867" stroke="#68D7BC" stroke-width="2"/>
<line x1="164.177" y1="681.18" x2="195.208" y2="661.028" stroke="#68D7BC" stroke-width="2"/>
<line x1="128.114" y1="704.599" x2="159.145" y2="684.447" stroke="#859FE1" stroke-width="2"/>
<line x1="200.24" y1="657.76" x2="231.27" y2="637.608" stroke="#859FE1" stroke-width="2"/>
<line x1="20.5811" y1="774.832" x2="51.6119" y2="754.68" stroke="#68D7BC" stroke-width="2"/>
<line x1="-15.4819" y1="798.251" x2="15.5489" y2="778.1" stroke="#859FE1" stroke-width="2"/>
<line x1="56.6438" y1="751.412" x2="87.6746" y2="731.26" stroke="#859FE1" stroke-width="2"/>
<line x1="416.114" y1="572.991" x2="447.145" y2="552.839" stroke="#68D7BC" stroke-width="2"/>
<line x1="488.24" y1="526.152" x2="519.271" y2="506" stroke="#68D7BC" stroke-width="2"/>
<line x1="560.365" y1="479.313" x2="591.396" y2="459.161" stroke="#68D7BC" stroke-width="2"/>
<line x1="452.177" y1="549.571" x2="483.208" y2="529.42" stroke="#859FE1" stroke-width="2"/>
<line x1="524.303" y1="502.732" x2="555.333" y2="482.581" stroke="#859FE1" stroke-width="2"/>
<line x1="272.518" y1="666.643" x2="303.549" y2="646.491" stroke="#68D7BC" stroke-width="2"/>
<line x1="344.644" y1="619.804" x2="375.675" y2="599.653" stroke="#68D7BC" stroke-width="2"/>
<line x1="308.581" y1="643.224" x2="339.612" y2="623.072" stroke="#859FE1" stroke-width="2"/>
<line x1="380.707" y1="596.384" x2="411.738" y2="576.233" stroke="#859FE1" stroke-width="2"/>
<line x1="129.051" y1="760.019" x2="160.082" y2="739.867" stroke="#68D7BC" stroke-width="2"/>
<line x1="201.177" y1="713.18" x2="232.208" y2="693.028" stroke="#68D7BC" stroke-width="2"/>
<line x1="165.114" y1="736.599" x2="196.145" y2="716.447" stroke="#859FE1" stroke-width="2"/>
<line x1="237.24" y1="689.76" x2="268.27" y2="669.608" stroke="#859FE1" stroke-width="2"/>
<line x1="-14.5446" y1="853.671" x2="16.4862" y2="833.519" stroke="#68D7BC" stroke-width="2"/>
<line x1="57.5811" y1="806.832" x2="88.6119" y2="786.68" stroke="#68D7BC" stroke-width="2"/>
<line x1="21.5181" y1="830.251" x2="52.5489" y2="810.1" stroke="#859FE1" stroke-width="2"/>
<line x1="93.6438" y1="783.412" x2="124.675" y2="763.26" stroke="#859FE1" stroke-width="2"/>
<line x1="390.114" y1="497.991" x2="421.145" y2="477.839" stroke="#68D7BC" stroke-width="2"/>
<line x1="462.24" y1="451.152" x2="493.271" y2="431" stroke="#68D7BC" stroke-width="2"/>
<line x1="534.366" y1="404.313" x2="565.396" y2="384.161" stroke="#68D7BC" stroke-width="2"/>
<line x1="426.177" y1="474.571" x2="457.208" y2="454.42" stroke="#859FE1" stroke-width="2"/>
<line x1="498.303" y1="427.732" x2="529.333" y2="407.581" stroke="#859FE1" stroke-width="2"/>
<line x1="246.518" y1="591.643" x2="277.549" y2="571.491" stroke="#68D7BC" stroke-width="2"/>
<line x1="318.644" y1="544.804" x2="349.675" y2="524.653" stroke="#68D7BC" stroke-width="2"/>
<line x1="282.581" y1="568.224" x2="313.612" y2="548.072" stroke="#859FE1" stroke-width="2"/>
<line x1="354.707" y1="521.384" x2="385.738" y2="501.233" stroke="#859FE1" stroke-width="2"/>
<line x1="103.051" y1="685.019" x2="134.082" y2="664.867" stroke="#68D7BC" stroke-width="2"/>
<line x1="175.177" y1="638.18" x2="206.208" y2="618.028" stroke="#68D7BC" stroke-width="2"/>
<line x1="139.114" y1="661.599" x2="170.145" y2="641.447" stroke="#859FE1" stroke-width="2"/>
<line x1="211.24" y1="614.76" x2="242.27" y2="594.608" stroke="#859FE1" stroke-width="2"/>
<line x1="31.5811" y1="731.832" x2="62.6119" y2="711.68" stroke="#68D7BC" stroke-width="2"/>
<line x1="-4.48189" y1="755.251" x2="26.5489" y2="735.1" stroke="#859FE1" stroke-width="2"/>
<line x1="67.6438" y1="708.412" x2="98.6746" y2="688.26" stroke="#859FE1" stroke-width="2"/>
<line x1="431.114" y1="610.991" x2="462.145" y2="590.839" stroke="#68D7BC" stroke-width="2"/>
<line x1="503.24" y1="564.152" x2="534.271" y2="544" stroke="#68D7BC" stroke-width="2"/>
<line x1="575.365" y1="517.313" x2="606.396" y2="497.161" stroke="#68D7BC" stroke-width="2"/>
<line x1="467.177" y1="587.571" x2="498.208" y2="567.42" stroke="#859FE1" stroke-width="2"/>
<line x1="539.303" y1="540.732" x2="570.333" y2="520.581" stroke="#859FE1" stroke-width="2"/>
<line x1="287.518" y1="704.643" x2="318.549" y2="684.491" stroke="#68D7BC" stroke-width="2"/>
<line x1="359.644" y1="657.804" x2="390.675" y2="637.653" stroke="#68D7BC" stroke-width="2"/>
<line x1="323.581" y1="681.224" x2="354.612" y2="661.072" stroke="#859FE1" stroke-width="2"/>
<line x1="395.707" y1="634.384" x2="426.738" y2="614.233" stroke="#859FE1" stroke-width="2"/>
<line x1="144.051" y1="798.019" x2="175.082" y2="777.867" stroke="#68D7BC" stroke-width="2"/>
<line x1="216.177" y1="751.18" x2="247.208" y2="731.028" stroke="#68D7BC" stroke-width="2"/>
<line x1="180.114" y1="774.599" x2="211.145" y2="754.447" stroke="#859FE1" stroke-width="2"/>
<line x1="252.24" y1="727.76" x2="283.27" y2="707.608" stroke="#859FE1" stroke-width="2"/>
<line x1="0.455361" y1="891.671" x2="31.4862" y2="871.519" stroke="#68D7BC" stroke-width="2"/>
<line x1="72.5811" y1="844.832" x2="103.612" y2="824.68" stroke="#68D7BC" stroke-width="2"/>
<line x1="36.5181" y1="868.251" x2="67.5489" y2="848.1" stroke="#859FE1" stroke-width="2"/>
<line x1="108.644" y1="821.412" x2="139.675" y2="801.26" stroke="#859FE1" stroke-width="2"/>
<line x1="405.114" y1="535.991" x2="436.145" y2="515.839" stroke="#68D7BC" stroke-width="2"/>
<line x1="477.24" y1="489.152" x2="508.271" y2="469" stroke="#68D7BC" stroke-width="2"/>
<line x1="549.365" y1="442.313" x2="580.396" y2="422.161" stroke="#68D7BC" stroke-width="2"/>
<line x1="441.177" y1="512.571" x2="472.208" y2="492.42" stroke="#859FE1" stroke-width="2"/>
<line x1="513.303" y1="465.732" x2="544.333" y2="445.581" stroke="#859FE1" stroke-width="2"/>
<line x1="261.518" y1="629.643" x2="292.549" y2="609.491" stroke="#68D7BC" stroke-width="2"/>
<line x1="333.644" y1="582.804" x2="364.675" y2="562.653" stroke="#68D7BC" stroke-width="2"/>
<line x1="297.581" y1="606.224" x2="328.612" y2="586.072" stroke="#859FE1" stroke-width="2"/>
<line x1="369.707" y1="559.384" x2="400.738" y2="539.233" stroke="#859FE1" stroke-width="2"/>
<line x1="118.051" y1="723.019" x2="149.082" y2="702.867" stroke="#68D7BC" stroke-width="2"/>
<line x1="190.177" y1="676.18" x2="221.208" y2="656.028" stroke="#68D7BC" stroke-width="2"/>
<line x1="154.114" y1="699.599" x2="185.145" y2="679.447" stroke="#859FE1" stroke-width="2"/>
<line x1="226.24" y1="652.76" x2="257.27" y2="632.608" stroke="#859FE1" stroke-width="2"/>
<line x1="-25.5446" y1="816.671" x2="5.48617" y2="796.519" stroke="#68D7BC" stroke-width="2"/>
<line x1="46.5811" y1="769.832" x2="77.6119" y2="749.68" stroke="#68D7BC" stroke-width="2"/>
<line x1="10.5181" y1="793.251" x2="41.5489" y2="773.1" stroke="#859FE1" stroke-width="2"/>
<line x1="82.6438" y1="746.412" x2="113.675" y2="726.26" stroke="#859FE1" stroke-width="2"/>
<line x1="570.265" y1="166.266" x2="542.769" y2="141.508" stroke="#68D7BC" stroke-width="2"/>
<line x1="506.355" y1="108.72" x2="478.858" y2="83.9626" stroke="#68D7BC" stroke-width="2"/>
<line x1="442.444" y1="51.175" x2="414.948" y2="26.4172" stroke="#68D7BC" stroke-width="2"/>
<line x1="538.31" y1="137.493" x2="510.814" y2="112.735" stroke="#859FE1" stroke-width="2"/>
<line x1="474.4" y1="79.9477" x2="446.903" y2="55.1899" stroke="#859FE1" stroke-width="2"/>
<line x1="633.981" y1="223.184" x2="606.485" y2="198.426" stroke="#68D7BC" stroke-width="2"/>
<line x1="602.026" y1="194.412" x2="574.53" y2="169.654" stroke="#859FE1" stroke-width="2"/>
<line x1="504.55" y1="210.791" x2="477.054" y2="186.033" stroke="#68D7BC" stroke-width="2"/>
<line x1="440.64" y1="153.246" x2="413.143" y2="128.488" stroke="#68D7BC" stroke-width="2"/>
<line x1="376.729" y1="95.7004" x2="349.233" y2="70.9426" stroke="#68D7BC" stroke-width="2"/>
<line x1="472.595" y1="182.018" x2="445.098" y2="157.26" stroke="#859FE1" stroke-width="2"/>
<line x1="408.684" y1="124.473" x2="381.188" y2="99.7153" stroke="#859FE1" stroke-width="2"/>
<line x1="312.226" y1="37.186" x2="284.73" y2="12.4282" stroke="#68D7BC" stroke-width="2"/>
<line x1="344.181" y1="65.9585" x2="316.685" y2="41.2006" stroke="#859FE1" stroke-width="2"/>
<line x1="280.271" y1="8.41331" x2="252.774" y2="-16.3445" stroke="#859FE1" stroke-width="2"/>
<line x1="345.308" y1="13.8279" x2="317.812" y2="-10.93" stroke="#68D7BC" stroke-width="2"/>
<line x1="377.263" y1="42.6003" x2="349.767" y2="17.8425" stroke="#859FE1" stroke-width="2"/>
<line x1="408.931" y1="21.6916" x2="381.435" y2="-3.0662" stroke="#859FE1" stroke-width="2"/>
<line x1="632.177" y1="325.255" x2="604.68" y2="300.497" stroke="#68D7BC" stroke-width="2"/>
<line x1="568.266" y1="267.71" x2="540.77" y2="242.952" stroke="#68D7BC" stroke-width="2"/>
<line x1="600.222" y1="296.482" x2="572.725" y2="271.724" stroke="#859FE1" stroke-width="2"/>
<line x1="536.311" y1="238.937" x2="508.815" y2="214.179" stroke="#859FE1" stroke-width="2"/>
<line x1="603.088" y1="141.942" x2="575.592" y2="117.184" stroke="#68D7BC" stroke-width="2"/>
<line x1="539.178" y1="84.3965" x2="511.681" y2="59.6386" stroke="#68D7BC" stroke-width="2"/>
<line x1="475.267" y1="26.8511" x2="447.771" y2="2.09322" stroke="#68D7BC" stroke-width="2"/>
<line x1="571.133" y1="113.169" x2="543.637" y2="88.4111" stroke="#859FE1" stroke-width="2"/>
<line x1="507.222" y1="55.6238" x2="479.726" y2="30.8659" stroke="#859FE1" stroke-width="2"/>
<line x1="634.849" y1="170.088" x2="607.352" y2="145.33" stroke="#859FE1" stroke-width="2"/>
<line x1="537.373" y1="186.467" x2="509.877" y2="161.709" stroke="#68D7BC" stroke-width="2"/>
<line x1="473.463" y1="128.922" x2="445.966" y2="104.164" stroke="#68D7BC" stroke-width="2"/>
<line x1="409.552" y1="71.3764" x2="382.056" y2="46.6186" stroke="#68D7BC" stroke-width="2"/>
<line x1="505.418" y1="157.694" x2="477.921" y2="132.936" stroke="#859FE1" stroke-width="2"/>
<line x1="441.507" y1="100.149" x2="414.011" y2="75.3913" stroke="#859FE1" stroke-width="2"/>
<line x1="601.089" y1="243.386" x2="573.593" y2="218.628" stroke="#68D7BC" stroke-width="2"/>
<line x1="633.044" y1="272.158" x2="605.548" y2="247.4" stroke="#859FE1" stroke-width="2"/>
<line x1="569.134" y1="214.613" x2="541.637" y2="189.855" stroke="#859FE1" stroke-width="2"/>
<line x1="450.531" y1="71.0093" x2="423.035" y2="46.2514" stroke="#68D7BC" stroke-width="2"/>
<line x1="386.621" y1="13.4641" x2="359.125" y2="-11.2937" stroke="#68D7BC" stroke-width="2"/>
<line x1="418.576" y1="42.2366" x2="391.08" y2="17.4787" stroke="#859FE1" stroke-width="2"/>
<line x1="578.158" y1="185.473" x2="550.661" y2="160.715" stroke="#68D7BC" stroke-width="2"/>
<line x1="514.247" y1="127.928" x2="486.751" y2="103.17" stroke="#68D7BC" stroke-width="2"/>
<line x1="546.202" y1="156.7" x2="518.706" y2="131.943" stroke="#859FE1" stroke-width="2"/>
<line x1="482.292" y1="99.1553" x2="454.795" y2="74.3974" stroke="#859FE1" stroke-width="2"/>
<line x1="609.618" y1="213.567" x2="582.121" y2="188.809" stroke="#859FE1" stroke-width="2"/>
<line x1="384.816" y1="115.535" x2="357.32" y2="90.7768" stroke="#68D7BC" stroke-width="2"/>
<line x1="320.906" y1="57.9895" x2="293.409" y2="33.2316" stroke="#68D7BC" stroke-width="2"/>
<line x1="256.995" y1="0.444073" x2="229.499" y2="-24.3138" stroke="#68D7BC" stroke-width="2"/>
<line x1="352.861" y1="86.7619" x2="325.365" y2="62.0041" stroke="#859FE1" stroke-width="2"/>
<line x1="288.95" y1="29.2168" x2="261.454" y2="4.45894" stroke="#859FE1" stroke-width="2"/>
<line x1="512.442" y1="229.999" x2="484.946" y2="205.241" stroke="#68D7BC" stroke-width="2"/>
<line x1="448.532" y1="172.453" x2="421.036" y2="147.696" stroke="#68D7BC" stroke-width="2"/>
<line x1="480.487" y1="201.226" x2="452.991" y2="176.468" stroke="#859FE1" stroke-width="2"/>
<line x1="416.577" y1="143.681" x2="389.08" y2="118.923" stroke="#859FE1" stroke-width="2"/>
<line x1="575.858" y1="286.865" x2="548.362" y2="262.107" stroke="#68D7BC" stroke-width="2"/>
<line x1="607.813" y1="315.637" x2="580.317" y2="290.88" stroke="#859FE1" stroke-width="2"/>
<line x1="543.903" y1="258.092" x2="516.406" y2="233.334" stroke="#859FE1" stroke-width="2"/>
<line x1="483.354" y1="46.6853" x2="455.858" y2="21.9274" stroke="#68D7BC" stroke-width="2"/>
<line x1="451.399" y1="17.9126" x2="423.903" y2="-6.84526" stroke="#859FE1" stroke-width="2"/>
<line x1="610.981" y1="161.149" x2="583.484" y2="136.391" stroke="#68D7BC" stroke-width="2"/>
<line x1="547.07" y1="103.604" x2="519.574" y2="78.8462" stroke="#68D7BC" stroke-width="2"/>
<line x1="579.025" y1="132.376" x2="551.529" y2="107.619" stroke="#859FE1" stroke-width="2"/>
<line x1="515.115" y1="74.8313" x2="487.618" y2="50.0734" stroke="#859FE1" stroke-width="2"/>
<line x1="417.639" y1="91.2107" x2="390.143" y2="66.4528" stroke="#68D7BC" stroke-width="2"/>
<line x1="353.729" y1="33.6655" x2="326.232" y2="8.90767" stroke="#68D7BC" stroke-width="2"/>
<line x1="385.684" y1="62.438" x2="358.188" y2="37.6801" stroke="#859FE1" stroke-width="2"/>
<line x1="321.773" y1="4.8928" x2="294.277" y2="-19.865" stroke="#859FE1" stroke-width="2"/>
<line x1="545.265" y1="205.675" x2="517.769" y2="180.917" stroke="#68D7BC" stroke-width="2"/>
<line x1="481.355" y1="148.129" x2="453.859" y2="123.372" stroke="#68D7BC" stroke-width="2"/>
<line x1="513.31" y1="176.902" x2="485.814" y2="152.144" stroke="#859FE1" stroke-width="2"/>
<line x1="449.4" y1="119.357" x2="421.903" y2="94.5988" stroke="#859FE1" stroke-width="2"/>
<line x1="608.681" y1="262.541" x2="581.185" y2="237.783" stroke="#68D7BC" stroke-width="2"/>
<line x1="576.726" y1="233.768" x2="549.229" y2="209.01" stroke="#859FE1" stroke-width="2"/>
<line x1="469.522" y1="60.7444" x2="442.025" y2="35.9865" stroke="#68D7BC" stroke-width="2"/>
<line x1="405.611" y1="3.1992" x2="378.115" y2="-21.5586" stroke="#68D7BC" stroke-width="2"/>
<line x1="437.566" y1="31.9717" x2="410.07" y2="7.21383" stroke="#859FE1" stroke-width="2"/>
<line x1="597.148" y1="175.208" x2="569.652" y2="150.45" stroke="#68D7BC" stroke-width="2"/>
<line x1="533.238" y1="117.663" x2="505.741" y2="92.9052" stroke="#68D7BC" stroke-width="2"/>
<line x1="565.193" y1="146.436" x2="537.696" y2="121.678" stroke="#859FE1" stroke-width="2"/>
<line x1="501.282" y1="88.8904" x2="473.786" y2="64.1325" stroke="#859FE1" stroke-width="2"/>
<line x1="628.608" y1="203.302" x2="601.112" y2="178.544" stroke="#859FE1" stroke-width="2"/>
<line x1="403.807" y1="105.27" x2="376.31" y2="80.5122" stroke="#68D7BC" stroke-width="2"/>
<line x1="339.896" y1="47.7248" x2="312.4" y2="22.967" stroke="#68D7BC" stroke-width="2"/>
<line x1="371.851" y1="76.4973" x2="344.355" y2="51.7395" stroke="#859FE1" stroke-width="2"/>
<line x1="307.941" y1="18.9521" x2="280.445" y2="-5.80571" stroke="#859FE1" stroke-width="2"/>
<line x1="531.433" y1="219.734" x2="503.937" y2="194.976" stroke="#68D7BC" stroke-width="2"/>
<line x1="467.523" y1="162.189" x2="440.026" y2="137.431" stroke="#68D7BC" stroke-width="2"/>
<line x1="499.478" y1="190.961" x2="471.981" y2="166.203" stroke="#859FE1" stroke-width="2"/>
<line x1="435.567" y1="133.416" x2="408.071" y2="108.658" stroke="#859FE1" stroke-width="2"/>
<line x1="594.848" y1="276.6" x2="567.352" y2="251.842" stroke="#68D7BC" stroke-width="2"/>
<line x1="626.804" y1="305.373" x2="599.307" y2="280.615" stroke="#859FE1" stroke-width="2"/>
<line x1="562.893" y1="247.828" x2="535.397" y2="223.07" stroke="#859FE1" stroke-width="2"/>
<line x1="502.345" y1="36.4204" x2="474.848" y2="11.6626" stroke="#68D7BC" stroke-width="2"/>
<line x1="470.389" y1="7.64769" x2="442.893" y2="-17.1101" stroke="#859FE1" stroke-width="2"/>
<line x1="629.971" y1="150.884" x2="602.474" y2="126.126" stroke="#68D7BC" stroke-width="2"/>
<line x1="566.06" y1="93.3391" x2="538.564" y2="68.5813" stroke="#68D7BC" stroke-width="2"/>
<line x1="598.016" y1="122.112" x2="570.519" y2="97.3537" stroke="#859FE1" stroke-width="2"/>
<line x1="534.105" y1="64.5664" x2="506.609" y2="39.8086" stroke="#859FE1" stroke-width="2"/>
<line x1="436.629" y1="80.946" x2="409.133" y2="56.1882" stroke="#68D7BC" stroke-width="2"/>
<line x1="372.719" y1="23.4009" x2="345.223" y2="-1.35698" stroke="#68D7BC" stroke-width="2"/>
<line x1="404.674" y1="52.1733" x2="377.178" y2="27.4155" stroke="#859FE1" stroke-width="2"/>
<line x1="564.256" y1="195.41" x2="536.759" y2="170.652" stroke="#68D7BC" stroke-width="2"/>
<line x1="500.345" y1="137.865" x2="472.849" y2="113.107" stroke="#68D7BC" stroke-width="2"/>
<line x1="532.3" y1="166.637" x2="504.804" y2="141.879" stroke="#859FE1" stroke-width="2"/>
<line x1="468.39" y1="109.092" x2="440.894" y2="84.3342" stroke="#859FE1" stroke-width="2"/>
<line x1="627.671" y1="252.276" x2="600.175" y2="227.519" stroke="#68D7BC" stroke-width="2"/>
<line x1="595.716" y1="223.504" x2="568.219" y2="198.746" stroke="#859FE1" stroke-width="2"/>
<line x1="457.963" y1="36.9245" x2="430.467" y2="12.1667" stroke="#68D7BC" stroke-width="2"/>
<line x1="426.008" y1="8.15184" x2="398.511" y2="-16.606" stroke="#859FE1" stroke-width="2"/>
<line x1="585.589" y1="151.388" x2="558.093" y2="126.631" stroke="#68D7BC" stroke-width="2"/>
<line x1="521.679" y1="93.8432" x2="494.182" y2="69.0854" stroke="#68D7BC" stroke-width="2"/>
<line x1="553.634" y1="122.616" x2="526.138" y2="97.8579" stroke="#859FE1" stroke-width="2"/>
<line x1="489.723" y1="65.0705" x2="462.227" y2="40.3127" stroke="#859FE1" stroke-width="2"/>
<line x1="617.049" y1="179.482" x2="589.553" y2="154.724" stroke="#859FE1" stroke-width="2"/>
<line x1="392.248" y1="81.4499" x2="364.751" y2="56.6921" stroke="#68D7BC" stroke-width="2"/>
<line x1="328.337" y1="23.9048" x2="300.841" y2="-0.853069" stroke="#68D7BC" stroke-width="2"/>
<line x1="360.292" y1="52.6772" x2="332.796" y2="27.9194" stroke="#859FE1" stroke-width="2"/>
<line x1="519.874" y1="195.914" x2="492.377" y2="171.156" stroke="#68D7BC" stroke-width="2"/>
<line x1="455.963" y1="138.369" x2="428.467" y2="113.611" stroke="#68D7BC" stroke-width="2"/>
<line x1="487.919" y1="167.141" x2="460.422" y2="142.383" stroke="#859FE1" stroke-width="2"/>
<line x1="424.008" y1="109.596" x2="396.512" y2="84.8381" stroke="#859FE1" stroke-width="2"/>
<line x1="583.289" y1="252.78" x2="555.793" y2="228.022" stroke="#68D7BC" stroke-width="2"/>
<line x1="615.244" y1="281.553" x2="587.748" y2="256.795" stroke="#859FE1" stroke-width="2"/>
<line x1="551.334" y1="224.008" x2="523.838" y2="199.25" stroke="#859FE1" stroke-width="2"/>
<line x1="490.786" y1="12.6006" x2="463.289" y2="-12.1573" stroke="#68D7BC" stroke-width="2"/>
<line x1="618.412" y1="127.064" x2="590.916" y2="102.307" stroke="#68D7BC" stroke-width="2"/>
<line x1="554.502" y1="69.5193" x2="527.005" y2="44.7614" stroke="#68D7BC" stroke-width="2"/>
<line x1="586.457" y1="98.2917" x2="558.96" y2="73.5339" stroke="#859FE1" stroke-width="2"/>
<line x1="522.546" y1="40.7466" x2="495.05" y2="15.9887" stroke="#859FE1" stroke-width="2"/>
<line x1="425.071" y1="57.126" x2="397.574" y2="32.3681" stroke="#68D7BC" stroke-width="2"/>
<line x1="361.16" y1="-0.419209" x2="333.664" y2="-25.177" stroke="#68D7BC" stroke-width="2"/>
<line x1="393.115" y1="28.3533" x2="365.619" y2="3.59542" stroke="#859FE1" stroke-width="2"/>
<line x1="552.697" y1="171.59" x2="525.201" y2="146.832" stroke="#68D7BC" stroke-width="2"/>
<line x1="488.786" y1="114.045" x2="461.29" y2="89.2868" stroke="#68D7BC" stroke-width="2"/>
<line x1="520.742" y1="142.817" x2="493.245" y2="118.059" stroke="#859FE1" stroke-width="2"/>
<line x1="456.831" y1="85.272" x2="429.335" y2="60.5141" stroke="#859FE1" stroke-width="2"/>
<line x1="616.112" y1="228.456" x2="588.616" y2="203.698" stroke="#68D7BC" stroke-width="2"/>
<line x1="584.157" y1="199.684" x2="556.661" y2="174.926" stroke="#859FE1" stroke-width="2"/>
<line x1="70.2261" y1="1148.19" x2="42.7298" y2="1123.43" stroke="#68D7BC" stroke-width="2"/>
<line x1="6.31573" y1="1090.64" x2="-21.1806" y2="1065.88" stroke="#68D7BC" stroke-width="2"/>
<line x1="38.2708" y1="1119.41" x2="10.7745" y2="1094.66" stroke="#859FE1" stroke-width="2"/>
<line x1="103.308" y1="1124.83" x2="75.8116" y2="1100.07" stroke="#68D7BC" stroke-width="2"/>
<line x1="39.3975" y1="1067.28" x2="11.9012" y2="1042.52" stroke="#68D7BC" stroke-width="2"/>
<line x1="135.263" y1="1153.6" x2="107.767" y2="1128.84" stroke="#859FE1" stroke-width="2"/>
<line x1="71.3526" y1="1096.06" x2="43.8562" y2="1071.3" stroke="#859FE1" stroke-width="2"/>
<line x1="134.976" y1="1103.92" x2="107.48" y2="1079.16" stroke="#68D7BC" stroke-width="2"/>
<line x1="71.0655" y1="1046.37" x2="43.5691" y2="1021.62" stroke="#68D7BC" stroke-width="2"/>
<line x1="166.931" y1="1132.69" x2="139.435" y2="1107.93" stroke="#859FE1" stroke-width="2"/>
<line x1="103.021" y1="1075.15" x2="75.5242" y2="1050.39" stroke="#859FE1" stroke-width="2"/>
<line x1="170.248" y1="1081.01" x2="142.752" y2="1056.25" stroke="#68D7BC" stroke-width="2"/>
<line x1="106.338" y1="1023.46" x2="78.8416" y2="998.706" stroke="#68D7BC" stroke-width="2"/>
<line x1="202.203" y1="1109.78" x2="174.707" y2="1085.02" stroke="#859FE1" stroke-width="2"/>
<line x1="138.293" y1="1052.24" x2="110.797" y2="1027.48" stroke="#859FE1" stroke-width="2"/>
<line x1="1.9566" y1="1073.37" x2="-25.5398" y2="1048.61" stroke="#859FE1" stroke-width="2"/>
<line x1="15.5303" y1="1058.34" x2="-11.966" y2="1033.59" stroke="#859FE1" stroke-width="2"/>
<line x1="1.34088" y1="1018.6" x2="-26.1555" y2="993.842" stroke="#68D7BC" stroke-width="2"/>
<line x1="33.296" y1="1047.37" x2="5.7996" y2="1022.61" stroke="#859FE1" stroke-width="2"/>
<line x1="15.2427" y1="1008.66" x2="-12.2536" y2="983.905" stroke="#68D7BC" stroke-width="2"/>
<line x1="47.1978" y1="1037.44" x2="19.7015" y2="1012.68" stroke="#859FE1" stroke-width="2"/>
<line x1="35.4578" y1="999.105" x2="7.96146" y2="974.347" stroke="#68D7BC" stroke-width="2"/>
<line x1="67.4129" y1="1027.88" x2="39.9165" y2="1003.12" stroke="#859FE1" stroke-width="2"/>
<line x1="3.5025" y1="970.333" x2="-23.9939" y2="945.575" stroke="#859FE1" stroke-width="2"/>
<line x1="50.5152" y1="985.753" x2="23.0188" y2="960.995" stroke="#68D7BC" stroke-width="2"/>
<line x1="82.4703" y1="1014.53" x2="54.9739" y2="989.768" stroke="#859FE1" stroke-width="2"/>
<line x1="18.5599" y1="956.98" x2="-8.93649" y2="932.223" stroke="#859FE1" stroke-width="2"/>
<line x1="69.5054" y1="975.488" x2="42.0091" y2="950.73" stroke="#68D7BC" stroke-width="2"/>
<line x1="5.59503" y1="917.943" x2="-21.9013" y2="893.185" stroke="#68D7BC" stroke-width="2"/>
<line x1="101.461" y1="1004.26" x2="73.9641" y2="979.503" stroke="#859FE1" stroke-width="2"/>
<line x1="37.5501" y1="946.716" x2="10.0537" y2="921.958" stroke="#859FE1" stroke-width="2"/>
<line x1="59.1712" y1="952.375" x2="31.6748" y2="927.618" stroke="#68D7BC" stroke-width="2"/>
<line x1="91.1263" y1="981.148" x2="63.6299" y2="956.39" stroke="#859FE1" stroke-width="2"/>
<line x1="27.2159" y1="923.603" x2="-0.280481" y2="898.845" stroke="#859FE1" stroke-width="2"/>
<line x1="4.7503" y1="1037.42" x2="-22.7461" y2="1012.66" stroke="#859FE1" stroke-width="2"/>
<line x1="22.9651" y1="1024.26" x2="-4.53121" y2="999.5" stroke="#859FE1" stroke-width="2"/>
<line x1="6.91412" y1="989.154" x2="-20.5822" y2="964.396" stroke="#68D7BC" stroke-width="2"/>
<line x1="38.8692" y1="1017.93" x2="11.3728" y2="993.168" stroke="#859FE1" stroke-width="2"/>
<line x1="23.9041" y1="975.284" x2="-3.59225" y2="950.526" stroke="#68D7BC" stroke-width="2"/>
<line x1="55.8592" y1="1004.06" x2="28.3628" y2="979.298" stroke="#859FE1" stroke-width="2"/>
<line x1="43.4131" y1="966.95" x2="15.9168" y2="942.193" stroke="#68D7BC" stroke-width="2"/>
<line x1="75.3682" y1="995.723" x2="47.8719" y2="970.965" stroke="#859FE1" stroke-width="2"/>
<line x1="11.4578" y1="938.178" x2="-16.0385" y2="913.42" stroke="#859FE1" stroke-width="2"/>
<line x1="233.267" y1="1137.85" x2="205.771" y2="1113.09" stroke="#68D7BC" stroke-width="2"/>
<line x1="144.621" y1="1124.46" x2="117.125" y2="1099.71" stroke="#68D7BC" stroke-width="2"/>
<line x1="80.7105" y1="1066.92" x2="53.2141" y2="1042.16" stroke="#68D7BC" stroke-width="2"/>
<line x1="176.576" y1="1153.24" x2="149.08" y2="1128.48" stroke="#859FE1" stroke-width="2"/>
<line x1="112.666" y1="1095.69" x2="85.1692" y2="1070.93" stroke="#859FE1" stroke-width="2"/>
<line x1="14.9954" y1="1111.44" x2="-12.5009" y2="1086.69" stroke="#68D7BC" stroke-width="2"/>
<line x1="46.9505" y1="1140.22" x2="19.4541" y2="1115.46" stroke="#859FE1" stroke-width="2"/>
<line x1="241.354" y1="1157.69" x2="213.858" y2="1132.93" stroke="#68D7BC" stroke-width="2"/>
<line x1="177.444" y1="1100.14" x2="149.948" y2="1075.38" stroke="#68D7BC" stroke-width="2"/>
<line x1="113.534" y1="1042.59" x2="86.0371" y2="1017.84" stroke="#68D7BC" stroke-width="2"/>
<line x1="209.399" y1="1128.91" x2="181.903" y2="1104.16" stroke="#859FE1" stroke-width="2"/>
<line x1="145.489" y1="1071.37" x2="117.992" y2="1046.61" stroke="#859FE1" stroke-width="2"/>
<line x1="111.729" y1="1144.67" x2="84.2325" y2="1119.91" stroke="#68D7BC" stroke-width="2"/>
<line x1="47.8184" y1="1087.12" x2="20.3221" y2="1062.36" stroke="#68D7BC" stroke-width="2"/>
<line x1="79.7735" y1="1115.89" x2="52.2771" y2="1091.14" stroke="#859FE1" stroke-width="2"/>
<line x1="163.611" y1="1114.2" x2="136.115" y2="1089.44" stroke="#68D7BC" stroke-width="2"/>
<line x1="99.701" y1="1056.65" x2="72.2046" y2="1031.9" stroke="#68D7BC" stroke-width="2"/>
<line x1="195.566" y1="1142.97" x2="168.07" y2="1118.21" stroke="#859FE1" stroke-width="2"/>
<line x1="131.656" y1="1085.43" x2="104.16" y2="1060.67" stroke="#859FE1" stroke-width="2"/>
<line x1="33.9859" y1="1101.18" x2="6.48954" y2="1076.42" stroke="#68D7BC" stroke-width="2"/>
<line x1="65.941" y1="1129.95" x2="38.4446" y2="1105.19" stroke="#859FE1" stroke-width="2"/>
<line x1="260.345" y1="1147.42" x2="232.848" y2="1122.66" stroke="#68D7BC" stroke-width="2"/>
<line x1="196.434" y1="1089.88" x2="168.938" y2="1065.12" stroke="#68D7BC" stroke-width="2"/>
<line x1="132.524" y1="1032.33" x2="105.027" y2="1007.57" stroke="#68D7BC" stroke-width="2"/>
<line x1="228.389" y1="1118.65" x2="200.893" y2="1093.89" stroke="#859FE1" stroke-width="2"/>
<line x1="164.479" y1="1061.1" x2="136.982" y2="1036.35" stroke="#859FE1" stroke-width="2"/>
<line x1="130.719" y1="1134.4" x2="103.223" y2="1109.64" stroke="#68D7BC" stroke-width="2"/>
<line x1="66.8087" y1="1076.86" x2="39.3123" y2="1052.1" stroke="#68D7BC" stroke-width="2"/>
<line x1="98.7637" y1="1105.63" x2="71.2674" y2="1080.87" stroke="#859FE1" stroke-width="2"/>
<line x1="215.963" y1="1147.92" x2="188.467" y2="1123.17" stroke="#68D7BC" stroke-width="2"/>
<line x1="152.053" y1="1090.38" x2="124.556" y2="1065.62" stroke="#68D7BC" stroke-width="2"/>
<line x1="88.1421" y1="1032.83" x2="60.6458" y2="1008.08" stroke="#68D7BC" stroke-width="2"/>
<line x1="184.008" y1="1119.15" x2="156.511" y2="1094.39" stroke="#859FE1" stroke-width="2"/>
<line x1="120.097" y1="1061.61" x2="92.6009" y2="1036.85" stroke="#859FE1" stroke-width="2"/>
<line x1="86.3372" y1="1134.91" x2="58.8409" y2="1110.15" stroke="#68D7BC" stroke-width="2"/>
<line x1="22.4268" y1="1077.36" x2="-5.06954" y2="1052.6" stroke="#68D7BC" stroke-width="2"/>
<line x1="54.3819" y1="1106.13" x2="26.8855" y2="1081.37" stroke="#859FE1" stroke-width="2"/>
<line x1="248.786" y1="1123.6" x2="221.289" y2="1098.84" stroke="#68D7BC" stroke-width="2"/>
<line x1="184.875" y1="1066.06" x2="157.379" y2="1041.3" stroke="#68D7BC" stroke-width="2"/>
<line x1="120.965" y1="1008.51" x2="93.4685" y2="983.752" stroke="#68D7BC" stroke-width="2"/>
<line x1="216.83" y1="1094.83" x2="189.334" y2="1070.07" stroke="#859FE1" stroke-width="2"/>
<line x1="152.92" y1="1037.28" x2="125.424" y2="1012.52" stroke="#859FE1" stroke-width="2"/>
<line x1="280.546" y1="1151.75" x2="253.05" y2="1126.99" stroke="#859FE1" stroke-width="2"/>
<line x1="119.16" y1="1110.58" x2="91.6639" y2="1085.82" stroke="#68D7BC" stroke-width="2"/>
<line x1="55.2498" y1="1053.04" x2="27.7535" y2="1028.28" stroke="#68D7BC" stroke-width="2"/>
<line x1="151.115" y1="1139.35" x2="123.619" y2="1114.6" stroke="#859FE1" stroke-width="2"/>
<line x1="87.2049" y1="1081.81" x2="59.7085" y2="1057.05" stroke="#859FE1" stroke-width="2"/>
</g>
<path d="M609 0V1133H611V0H609Z" fill="#E2F6FF" fill-opacity="0.4" mask="url(#path-1-inside-1_26_22395)"/>
<defs>
<linearGradient id="paint0_linear_26_22395" x1="328.5" y1="-146" x2="890.5" y2="1300.5" gradientUnits="userSpaceOnUse">
<stop stop-color="#95F5DE" stop-opacity="0.01"/>
<stop offset="0.429823" stop-color="#DDFFF6"/>
<stop offset="1" stop-color="#3D7E82" stop-opacity="0.62"/>
</linearGradient>
<clipPath id="clip0_26_22395">
<path d="M0 0H610V1133H0V0Z" fill="white"/>
</clipPath>
</defs>
</svg>
